<?xml version="1.0" encoding="utf-8"?>
<!-- Generator: Adobe Illustrator 23.0.6, SVG Export Plug-In . SVG Version: 6.00 Build 0)  -->
<svg version="1.1" id="Capa_1" xmlns="http://www.w3.org/2000/svg" xmlns:xlink="http://www.w3.org/1999/xlink" x="0px" y="0px"
	 viewBox="0 0 201.66 193.21" style="enable-background:new 0 0 201.66 193.21;" xml:space="preserve">
<style type="text/css">
	.st0{fill:#7B84AE;}
	.st1{fill:#1A1C36;}
</style>
<path class="st0" d="M83.36,114.4l-23.12,21.92l-2.9-21.92H44.17c0,0-19.03,21.44-17.77-50.31c0,0,8.37-3.25,2.56-13.45
	c-2.87-5.05-4.19-24.78,15.21-30.07h84.93c0,0,11.97,0.93,11.97,17.77v40.98l10.91-3.47c0,0,11.24-10.01,16.81,4.92l-2.88,51.31
	c0,0,1.34,17.76-13.92,11.33l-2.9,14.63c0,0-11.73-12.93-13.78-13.78s-42.68-1.19-42.68-1.19l-5.92-17.84
	C86.7,125.24,95.16,113.76,83.36,114.4z"/>
<path class="st1" d="M57.33,146.23c-1.6,0-2.9-1.3-2.9-2.9v-23.12H44.17c-9.81-0.01-17.76-7.96-17.77-17.77V38.34
	c0.01-9.81,7.96-17.76,17.77-17.77h84.93c9.81,0.01,17.76,7.96,17.77,17.77v64.09c-0.01,9.81-7.96,17.76-17.77,17.77H84.56
	l-25.17,25.17C58.84,145.93,58.1,146.23,57.33,146.23z M44.17,26.38c-6.6,0.01-11.96,5.36-11.97,11.96v64.09
	c0.01,6.61,5.36,11.96,11.97,11.97h13.16c1.6,0,2.9,1.3,2.9,2.9v19.01l21.07-21.07c0.54-0.54,1.28-0.85,2.05-0.85h45.75
	c6.61-0.01,11.96-5.36,11.97-11.97V38.34c-0.01-6.6-5.36-11.96-11.97-11.96H44.17z"/>
<path class="st1" d="M148.63,164.43c-0.77,0-1.51-0.31-2.05-0.85l-17.89-17.89H96.95c-7.51-0.01-13.6-6.1-13.61-13.61v-10.37
	c0-1.6,1.3-2.9,2.9-2.9c1.6,0,2.9,1.3,2.9,2.9v10.37c0.01,4.31,3.5,7.8,7.8,7.8h32.94c0.77,0,1.51,0.31,2.05,0.85l13.78,13.78
	v-11.73c0-1.6,1.3-2.9,2.9-2.9h9.47c4.31,0,7.8-3.5,7.8-7.8V85.94c0-4.31-3.49-7.8-7.8-7.8h-9.48c-1.6,0-2.9-1.3-2.9-2.9
	s1.3-2.9,2.9-2.9h9.48c7.51,0.01,13.6,6.1,13.61,13.61v46.14c-0.01,7.51-6.1,13.6-13.61,13.61h-6.57v15.83
	C151.53,163.13,150.23,164.43,148.63,164.43L148.63,164.43z"/>
<path class="st1" d="M85.71,72.38c-7.7,0-14.01-5.83-14.11-13.08c-0.04-3.61,1.45-7.06,4.1-9.51c5.98-5.54,15.31-5.19,20.85,0.79
	c0.15,0.16,0.29,0.32,0.43,0.49c1.02,1.24,0.83,3.07-0.41,4.09c-1.24,1.02-3.07,0.83-4.09-0.41c0-0.01-0.01-0.01-0.01-0.02
	c-1.69-2.01-4.21-3.14-6.84-3.07c-2.21,0-4.33,0.84-5.94,2.34c-1.47,1.34-2.3,3.24-2.29,5.22c0.05,4.07,3.77,7.35,8.3,7.35h0.16
	c1.6-0.01,2.91,1.28,2.92,2.89c0.01,1.6-1.28,2.91-2.89,2.92H85.71z"/>
<path class="st1" d="M85.98,93.1c-4.33,0.03-8.45-1.89-11.23-5.21c-1.03-1.23-0.86-3.06,0.37-4.09c1.23-1.03,3.06-0.86,4.09,0.37
	c0.01,0.02,0.03,0.04,0.04,0.05c1.69,2.01,4.21,3.14,6.84,3.07c4.59-0.06,8.28-3.45,8.23-7.57s-3.85-7.39-8.42-7.35
	c-1.6,0.02-2.92-1.26-2.94-2.87c-0.02-1.6,1.26-2.92,2.87-2.94c7.8-0.08,14.21,5.77,14.31,13.08c0.1,7.31-6.17,13.35-13.96,13.45
	L85.98,93.1z"/>
<path class="st1" d="M85.87,51.66c-1.6,0-2.9-1.3-2.9-2.9V38.57c0-1.6,1.3-2.9,2.9-2.9s2.9,1.3,2.9,2.9v10.18
	C88.77,50.36,87.47,51.66,85.87,51.66z"/>
<path class="st1" d="M85.87,103.27c-1.6,0-2.9-1.3-2.9-2.9V90.19c0-1.6,1.3-2.9,2.9-2.9s2.9,1.3,2.9,2.9v10.18
	C88.77,101.97,87.47,103.27,85.87,103.27z"/>
</svg>
