<?xml version="1.0" encoding="utf-8"?>
<!-- Generator: Adobe Illustrator 23.0.6, SVG Export Plug-In . SVG Version: 6.00 Build 0)  -->
<svg version="1.1" id="Capa_1" xmlns="http://www.w3.org/2000/svg" xmlns:xlink="http://www.w3.org/1999/xlink" x="0px" y="0px"
	 viewBox="0 0 218.77 190.5" style="enable-background:new 0 0 218.77 190.5;" xml:space="preserve">
<style type="text/css">
	.st0{fill:#D4A469;}
	.st1{fill:#2E3A73;}
	.st2{fill:#1A1C36;}
</style>
<path class="st0" d="M52.96,39.27h132.5v121.61H32.16c0,0-19.73-0.93-7.37-25.19l-4.07-3.56L18.55,27.02c0,0,14.16-22.67,30.68-3.05
	L52.96,39.27z"/>
<polygon class="st1" points="167.99,118.64 167.74,118.64 167.74,85.29 144.85,85.29 144.85,118.64 144.76,118.64 144.76,112.23 
	121.86,112.23 121.86,118.64 117.35,118.64 117.35,91.39 94.46,91.39 94.46,118.64 68.81,118.64 68.81,147.68 121.86,147.68 
	121.86,148.34 144.76,148.34 144.76,147.68 167.99,147.68 "/>
<g>
	<g>
		<g>
			<path class="st2" d="M185.86,35.65H56.08v-3.82c0-10.51-8.56-19.05-19.09-19.05c-10.51,0-19.06,8.55-19.06,19.05v114.92
				c0,10.53,8.57,19.09,19.09,19.09h148.84c1.89,0,3.43-1.53,3.43-3.43V39.08C189.29,37.18,187.76,35.65,185.86,35.65L185.86,35.65z
				 M24.79,31.83c0-6.73,5.47-12.2,12.2-12.2c6.75,0,12.24,5.47,12.24,12.2v100.3c-3.32-2.77-7.59-4.44-12.24-4.44
				c-4.64,0-8.89,1.67-12.2,4.43C24.79,97.49,24.79,68.02,24.79,31.83L24.79,31.83z M182.44,158.99H37.03
				c-6.75,0-12.24-5.49-12.24-12.24c0-6.73,5.47-12.2,12.2-12.2c6.75,0,12.24,5.47,12.24,12.2c0,1.89,1.53,3.43,3.43,3.43
				s3.43-1.53,3.43-3.43V42.5h126.36V158.99z"/>
			<path class="st2" d="M70.28,90.06L98.32,67.2c6.51-5.32,12.41,1.41,30.05,7.46c11.76,4.83,18.29-5.5,42.3-18.35
				c1.62-0.98,2.13-3.09,1.15-4.71c-0.98-1.61-3.08-2.13-4.71-1.15c-26.72,15.02-29.25,20.69-36.14,17.86
				c-14.84-4.56-26.02-15.39-36.99-6.43L65.95,84.75c-1.47,1.2-1.69,3.36-0.49,4.82C66.66,91.05,68.81,91.26,70.28,90.06
				L70.28,90.06z"/>
			<path class="st2" d="M166.5,81.11h-20.42c-3.21,0-5.82,2.61-5.82,5.82v21.61h-18.34V94.21c0-3.21-2.61-5.82-5.82-5.82H95.7
				c-3.21,0-5.82,2.61-5.82,5.82v22.05H70.5c-3.21,0-5.82,2.61-5.82,5.82l0,24.38c0.12,3.13,2.68,5.59,5.82,5.59
				c102.13-0.02-32.33-0.01,96-0.01c3.21,0,5.82-2.61,5.82-5.82V86.93C172.32,83.72,169.71,81.11,166.5,81.11z M71.54,123.11
				l18.34,0v22.08H71.54V123.11z M96.74,95.24h18.34v49.93H96.74C96.74,132.31,96.74,107.47,96.74,95.24z M121.93,115.39h18.34
				v29.78h-18.34V115.39z M165.47,145.17h-18.34c0-0.53,0-56.86,0-57.21h18.34V145.17z"/>
		</g>
	</g>
</g>
</svg>
