<?xml version="1.0" encoding="utf-8"?>
<!-- Generator: Adobe Illustrator 23.0.6, SVG Export Plug-In . SVG Version: 6.00 Build 0)  -->
<svg version="1.1" id="Capa_1" xmlns="http://www.w3.org/2000/svg" xmlns:xlink="http://www.w3.org/1999/xlink" x="0px" y="0px"
	 viewBox="0 0 190.29 196.94" style="enable-background:new 0 0 190.29 196.94;" xml:space="preserve">
<style type="text/css">
	.st0{fill:#AB9B38;}
	.st1{fill:#1A1C36;}
</style>
<path class="st0" d="M121.45,78.76l3.01,79.75c0,0,13.52,15.38,39.68,0.79V77.67C164.13,77.67,139.18,61.54,121.45,78.76z"/>
<path class="st0" d="M74.07,108.68c0,0,9.97-19.95,39.89,0v49.87c0,0-27.75,15.97-39.89,0V108.68z"/>
<path class="st0" d="M16.73,128.63v29.92c0,0,14.96,19.95,44.88,0v-29.92C61.61,128.63,45.36,110.84,16.73,128.63z"/>
<path class="st1" d="M39.17,118.65c-11.15,0-22.44,3.43-22.44,9.97v29.92c0,6.55,11.29,9.97,22.44,9.97s22.44-3.43,22.44-9.97
	v-29.92C61.61,122.08,50.32,118.65,39.17,118.65z M39.17,123.64c11.34,0,17.45,3.54,17.45,4.99c0,1.45-6.12,4.99-17.45,4.99
	s-17.45-3.54-17.45-4.99C21.71,127.18,27.83,123.64,39.17,123.64z M39.17,163.53c-11.34,0-17.45-3.54-17.45-4.99v-3.49
	c5.48,2.48,11.45,3.67,17.45,3.49c6.01,0.18,11.98-1.02,17.45-3.49v3.49C56.62,159.99,50.5,163.53,39.17,163.53z M39.17,153.56
	c-11.34,0-17.45-3.54-17.45-4.99v-3.49c5.48,2.48,11.45,3.67,17.45,3.49c6.01,0.18,11.98-1.02,17.45-3.49v3.49
	C56.62,150.02,50.5,153.56,39.17,153.56z M39.17,143.59c-11.34,0-17.45-3.54-17.45-4.99v-3.49c5.48,2.48,11.45,3.67,17.45,3.49
	c6.01,0.18,11.98-1.02,17.45-3.49v3.49C56.62,140.05,50.5,143.59,39.17,143.59z"/>
<path class="st1" d="M91.53,98.71c-11.15,0-22.44,3.43-22.44,9.97v49.87c0,6.55,11.29,9.97,22.44,9.97s22.44-3.43,22.44-9.97v-49.87
	C113.97,102.13,102.68,98.71,91.53,98.71z M91.53,103.69c11.34,0,17.45,3.54,17.45,4.99s-6.12,4.99-17.45,4.99
	s-17.45-3.54-17.45-4.99S80.19,103.69,91.53,103.69z M91.53,163.53c-11.34,0-17.45-3.54-17.45-4.99v-3.49
	c5.48,2.48,11.45,3.67,17.45,3.49c6.01,0.18,11.98-1.02,17.45-3.49v3.49C108.98,159.99,102.86,163.53,91.53,163.53z M91.53,153.56
	c-11.34,0-17.45-3.54-17.45-4.99v-3.49c5.48,2.48,11.45,3.67,17.45,3.49c6.01,0.18,11.98-1.02,17.45-3.49v3.49
	C108.98,150.02,102.86,153.56,91.53,153.56z M91.53,143.59c-11.34,0-17.45-3.54-17.45-4.99v-3.49c5.48,2.48,11.45,3.67,17.45,3.49
	c6.01,0.18,11.98-1.02,17.45-3.49v3.49C108.98,140.05,102.86,143.59,91.53,143.59z M91.53,133.61c-11.34,0-17.45-3.54-17.45-4.99
	v-3.49c5.48,2.48,11.45,3.67,17.45,3.49c6.01,0.18,11.98-1.02,17.45-3.49v3.49C108.98,130.07,102.86,133.61,91.53,133.61z
	 M91.53,123.64c-11.34,0-17.45-3.54-17.45-4.99v-3.49c5.48,2.48,11.45,3.67,17.45,3.49c6.01,0.18,11.98-1.02,17.45-3.49v3.49
	C108.98,120.1,102.86,123.64,91.53,123.64z"/>
<path class="st1" d="M143.89,68.79c-11.15,0-22.44,3.43-22.44,9.97v79.79c0,6.55,11.29,9.97,22.44,9.97
	c11.15,0,22.44-3.43,22.44-9.97V78.76C166.33,72.21,155.04,68.79,143.89,68.79z M143.89,73.77c11.34,0,17.45,3.54,17.45,4.99
	c0,1.45-6.12,4.99-17.45,4.99c-11.34,0-17.45-3.54-17.45-4.99C126.43,77.31,132.55,73.77,143.89,73.77z M143.89,163.53
	c-11.34,0-17.45-3.54-17.45-4.99v-3.49c5.48,2.48,11.45,3.67,17.45,3.49c6.01,0.18,11.98-1.02,17.45-3.49v3.49
	C161.34,159.99,155.22,163.53,143.89,163.53z M143.89,153.56c-11.34,0-17.45-3.54-17.45-4.99v-3.49c5.48,2.48,11.45,3.67,17.45,3.49
	c6.01,0.18,11.98-1.02,17.45-3.49v3.49C161.34,150.02,155.22,153.56,143.89,153.56z M143.89,143.59c-11.34,0-17.45-3.54-17.45-4.99
	v-3.49c5.48,2.48,11.45,3.67,17.45,3.49c6.01,0.18,11.98-1.02,17.45-3.49v3.49C161.34,140.05,155.22,143.59,143.89,143.59z
	 M143.89,133.61c-11.34,0-17.45-3.54-17.45-4.99v-3.49c5.48,2.48,11.45,3.67,17.45,3.49c6.01,0.18,11.98-1.02,17.45-3.49v3.49
	C161.34,130.07,155.22,133.61,143.89,133.61z M143.89,123.64c-11.34,0-17.45-3.54-17.45-4.99v-3.49c5.48,2.48,11.45,3.67,17.45,3.49
	c6.01,0.18,11.98-1.02,17.45-3.49v3.49C161.34,120.1,155.22,123.64,143.89,123.64z M143.89,113.67c-11.34,0-17.45-3.54-17.45-4.99
	v-3.49c5.48,2.48,11.45,3.67,17.45,3.49c6.01,0.18,11.98-1.02,17.45-3.49v3.49C161.34,110.13,155.22,113.67,143.89,113.67z
	 M143.89,103.69c-11.34,0-17.45-3.54-17.45-4.99v-3.49c5.48,2.48,11.45,3.67,17.45,3.49c6.01,0.18,11.98-1.02,17.45-3.49v3.49
	C161.34,100.15,155.22,103.69,143.89,103.69z M143.89,93.72c-11.34,0-17.45-3.54-17.45-4.99v-3.49c5.48,2.48,11.45,3.67,17.45,3.49
	c6.01,0.18,11.98-1.02,17.45-3.49v3.49C161.34,90.18,155.22,93.72,143.89,93.72z"/>
<path class="st1" d="M138.9,18.92v4.99h18.91l-47.37,47.37H58.17l-40.6,35.52l3.29,3.75l39.19-34.29h52.45l48.83-48.83v18.91h4.99
	V18.92H138.9z"/>
</svg>
