<?xml version="1.0" encoding="utf-8"?>
<!-- Generator: Adobe Illustrator 23.0.6, SVG Export Plug-In . SVG Version: 6.00 Build 0)  -->
<svg version="1.1" id="Capa_1" xmlns="http://www.w3.org/2000/svg" xmlns:xlink="http://www.w3.org/1999/xlink" x="0px" y="0px"
	 viewBox="0 0 238.21 226" style="enable-background:new 0 0 238.21 226;" xml:space="preserve">
<style type="text/css">
	.st0{fill:#2E3A73;}
	.st1{fill:#AB9B38;}
	.st2{fill:#D4A469;}
	.st3{fill:#7B84AE;}
	.st4{fill:#1A1C36;}
</style>
<path class="st0" d="M50.45,115c-2.66-2.04-33.94-22.54-10.59-55.37c0,0,39.62-35.33,57.41,4.33c0,0,24.82,34.92-17.69,55.76
	l-2.65,48.62c0,0,6.74,7.42-18.54,4.32c0,0,2.65-28.16,2.65-33.46s5.3-10.99,5.3-10.99l2.65-10.19
	C68.99,118.03,60.51,122.71,50.45,115z"/>
<path class="st1" d="M185.39,36.66H124.6l-10.59,9.87l1.11,90.04c0,0,6.84,2.65,9.49,5.3c2.65,2.65,63.56-3.81,63.56-3.81
	l3.25-22.67l2.04-68.85L185.39,36.66z"/>
<path class="st2" d="M82.23,128.62l-2.65-8.89l18.54,2.8c0,0,7.94,7.64-7.94,6.87l-2.65,11.18l3.23,11.89l-3.23,10.34l-16.65-2.01
	c0,0-8.34-0.38-2.47-8.33v-10.59l2.47-7.94C70.87,133.92,66.34,131.27,82.23,128.62z"/>
<path class="st2" d="M149.71,181.59h29.24c0,0,8.03-8.49,11.1-10.59c3.08-2.11,0-37.08,0-37.08l-31.26-8.32l0.33-24.53
	c0,0-8.71-5.97-13.33,3.72l5.3,40.74c0,0-9.84-17.51-21.19-7.32l8.64,7.07l-3.34,20.15C135.19,165.42,143.62,184.52,149.71,181.59z"
	/>
<path class="st2" d="M71.53,129.14c0,0-7.62-13.56-15.76-8.13c0,0-17.59,21.11-18.69,19.56c-1.1-1.56-2.52,6.15-2.52,6.15
	l15.89,34.86h26.48l2.65-7.25l-21.19-1.66V161.7l2.65-22.48L71.53,129.14z"/>
<rect x="125.6" y="46.1" class="st3" width="54.47" height="21.49"/>
<rect x="127.57" y="77.64" class="st0" width="9.6" height="10.89"/>
<rect x="148.93" y="78.15" class="st0" width="9.6" height="10.89"/>
<rect x="171.23" y="78.15" class="st0" width="9.6" height="10.89"/>
<rect x="170.12" y="99.34" class="st0" width="9.6" height="10.89"/>
<rect x="127.9" y="99.5" class="st0" width="9.6" height="10.89"/>
<rect x="127.9" y="120.15" class="st0" width="9.6" height="10.89"/>
<rect x="170.12" y="119.73" class="st0" width="9.6" height="10.89"/>
<ellipse class="st3" cx="69.09" cy="83.84" rx="26.47" ry="27"/>
<g>
	<path class="st4" d="M180.22,33.29h-52.96c-7.3,0-13.24,5.94-13.24,13.24v84.74c0,7.3,5.94,13.24,13.24,13.24h4.98l1.56,3.12
		c0.91,1.83,1.4,3.88,1.4,5.92v11.86c0,4.19,1.44,8.3,4.06,11.58l5.64,7.04c-2.84,2.9-4.4,6.72-4.4,10.78v2.65h47.67v-2.65
		c0-4.06-1.57-7.88-4.4-10.78l5.64-7.04c2.62-3.27,4.06-7.39,4.06-11.58v-23.56v-3.81V46.53C193.46,39.23,187.52,33.29,180.22,33.29
		z M129.9,128.62v-5.3h5.3l0,5.3H129.9z M146.13,192.18c0.46-1.69,1.35-3.25,2.62-4.52l0.78-0.78h29.59l0.78,0.78
		c1.27,1.27,2.17,2.83,2.62,4.52H146.13z M188.16,141.86v23.56c0,3-1.03,5.93-2.9,8.27l-6.31,7.89h-29.24l-6.32-7.89
		c-1.87-2.34-2.9-5.28-2.9-8.27v-11.86c0-2.86-0.68-5.73-1.96-8.29l-3.17-6.33c-0.11-0.23-0.17-0.48-0.17-0.73
		c0-0.9,0.73-1.64,1.64-1.64c4.94,0,8.96,4.02,8.96,8.96v4.28v7.94h5.3v-7.94v-4.28v-40.74c0-1.46,1.19-2.65,2.65-2.65
		s2.65,1.19,2.65,2.65v17.79v35.17h5.3v-28.39l5.3,1.32v27.06h5.3v-25.74l5.3,1.32v24.41h5.3v-23.09l3.29,0.82
		c1.18,0.29,2.01,1.35,2.01,2.57V141.86z M172.27,126.55v-3.23h5.3v4.55L172.27,126.55z M188.16,130.59
		c-0.24-0.08-0.47-0.18-0.72-0.25l-4.58-1.14v-5.88c0-2.92-2.38-5.3-5.3-5.3h-5.3c-2.92,0-5.3,2.38-5.3,5.3v1.9l-5.3-1.32v-19.12
		c0-4.38-3.56-7.94-7.94-7.94s-7.94,3.56-7.94,7.94v29.74c-1.77-1.45-3.86-2.52-6.19-2.98c0.56-0.84,0.89-1.85,0.89-2.93v-5.3
		c0-2.92-2.38-5.3-5.3-5.3h-5.3c-2.92,0-5.3,2.38-5.3,5.3v5.3c0,2.92,2.38,5.3,5.3,5.3h1.53c-0.94,1.18-1.53,2.66-1.53,4.28
		c0,0.34,0.07,0.68,0.12,1.01h-2.77c-4.38,0-7.94-3.56-7.94-7.94V46.53c0-4.38,3.56-7.94,7.94-7.94h52.96
		c4.38,0,7.94,3.56,7.94,7.94V130.59z"/>
	<path class="st4" d="M177.57,43.88H129.9c-2.92,0-5.3,2.38-5.3,5.3v15.89c0,2.92,2.38,5.3,5.3,5.3h47.67c2.92,0,5.3-2.38,5.3-5.3
		V49.17C182.86,46.25,180.49,43.88,177.57,43.88z M129.9,65.06V49.17h47.67l0,15.89H129.9z"/>
	<path class="st4" d="M135.19,75.66h-5.3c-2.92,0-5.3,2.38-5.3,5.3v5.3c0,2.92,2.38,5.3,5.3,5.3h5.3c2.92,0,5.3-2.38,5.3-5.3v-5.3
		C140.49,78.03,138.12,75.66,135.19,75.66z M129.9,86.25v-5.3h5.3l0,5.3H129.9z"/>
	<path class="st4" d="M156.38,75.66h-5.3c-2.92,0-5.3,2.38-5.3,5.3v5.3c0,2.92,2.38,5.3,5.3,5.3h5.3c2.92,0,5.3-2.38,5.3-5.3v-5.3
		C161.68,78.03,159.3,75.66,156.38,75.66z M151.08,86.25v-5.3h5.3l0,5.3H151.08z"/>
	<path class="st4" d="M177.57,75.66h-5.3c-2.92,0-5.3,2.38-5.3,5.3v5.3c0,2.92,2.38,5.3,5.3,5.3h5.3c2.92,0,5.3-2.38,5.3-5.3v-5.3
		C182.86,78.03,180.49,75.66,177.57,75.66z M172.27,86.25v-5.3h5.3l0,5.3H172.27z"/>
	<path class="st4" d="M135.19,96.84h-5.3c-2.92,0-5.3,2.38-5.3,5.3v5.3c0,2.92,2.38,5.3,5.3,5.3h5.3c2.92,0,5.3-2.38,5.3-5.3v-5.3
		C140.49,99.22,138.12,96.84,135.19,96.84z M129.9,107.44v-5.3h5.3l0,5.3H129.9z"/>
	<path class="st4" d="M177.57,96.84h-5.3c-2.92,0-5.3,2.38-5.3,5.3v5.3c0,2.92,2.38,5.3,5.3,5.3h5.3c2.92,0,5.3-2.38,5.3-5.3v-5.3
		C182.86,99.22,180.49,96.84,177.57,96.84z M172.27,107.44v-5.3h5.3l0,5.3H172.27z"/>
	<path class="st4" d="M92.82,46.53h7.19l-5.87,6.36c-2.88-2.38-5.07-3.56-5.07-3.56c-6.07-3.56-13.02-5.44-20.09-5.44
		c-21.9,0-39.72,17.82-39.72,39.72c0,17.26,11.09,31.95,26.5,37.41l-11.57,7.71c-6.03,4.02-9.63,10.75-9.63,18
		c0,2.33,0.37,4.63,1.11,6.84l9.48,28.45v1.59l-6.93,13.87h50.94l-6.93-13.87v-15.26v-2.65h2.65c4.38,0,7.94-3.56,7.94-7.94
		c0-2.04-0.8-3.89-2.07-5.3c1.27-1.41,2.07-3.25,2.07-5.3c0-2.04-0.8-3.89-2.07-5.3c1.27-1.41,2.07-3.25,2.07-5.3
		c0-0.93-0.19-1.82-0.49-2.65h3.14c4.38,0,7.94-3.56,7.94-7.94c0-4.38-3.56-7.94-7.94-7.94h-6.75
		c11.92-6.86,19.99-19.71,19.99-34.43c0.03-6.45-1.54-12.76-4.59-18.52l0.01-0.01c-1.76-3.42-3.95-6.27-6.11-8.56l5.4-5.85v6.47h5.3
		V41.23H92.82V46.53z M40.7,151.89c-0.56-1.67-0.84-3.41-0.84-5.17c0-5.47,2.72-10.56,7.27-13.59l13.84-9.23
		c0.57-0.38,1.23-0.58,1.91-0.58c1.9,0,3.45,1.55,3.45,3.45v1.45c0,1.08-0.52,2.11-1.38,2.76l-3.92,2.94
		c-3.32,2.49-5.3,6.45-5.3,10.59v23.83c0,4.38,3.56,7.94,7.94,7.94h10.59c0.93,0,1.82-0.19,2.65-0.49v5.78H50.45v-0.43L40.7,151.89z
		 M68.41,152.46c-1.27,1.41-2.07,3.25-2.07,5.3c0,4.38,3.56,7.94,7.94,7.94h2.65v2.65c0,1.46-1.19,2.65-2.65,2.65H63.69
		c-1.46,0-2.65-1.19-2.65-2.65v-23.83c0-2.49,1.19-4.86,3.18-6.36l2.12-1.59c0,2.04,0.8,3.89,2.07,5.3
		c-1.27,1.41-2.07,3.25-2.07,5.3C66.34,149.2,67.14,151.05,68.41,152.46z M70.87,123.23c2.06-0.1,4.09-0.3,6.06-0.7v6.1h-2.65
		c-0.97,0-1.9,0.2-2.76,0.52c0.03-0.31,0.11-0.61,0.11-0.92v-1.45C71.64,125.51,71.36,124.32,70.87,123.23z M46.79,192.18l2.65-5.3
		h28.51l2.65,5.3H46.79z M84.88,160.4H74.29c-1.46,0-2.65-1.19-2.65-2.65s1.19-2.65,2.65-2.65h10.59c1.46,0,2.65,1.19,2.65,2.65
		S86.34,160.4,84.88,160.4z M84.88,149.81H74.29c-1.46,0-2.65-1.19-2.65-2.65c0-1.46,1.19-2.65,2.65-2.65h10.59
		c1.46,0,2.65,1.19,2.65,2.65C87.53,148.62,86.34,149.81,84.88,149.81z M84.88,139.21H74.29c-1.46,0-2.65-1.19-2.65-2.65
		c0-1.46,1.19-2.65,2.65-2.65h5.3h5.3c1.46,0,2.65,1.19,2.65,2.65C87.53,138.03,86.34,139.21,84.88,139.21z M95.47,123.33
		c1.46,0,2.65,1.19,2.65,2.65s-1.19,2.65-2.65,2.65H84.88h-2.65v-5.3H95.47z M97.27,63.97c4.02,5.78,6.15,12.57,6.15,19.63
		c0,18.98-15.44,34.43-34.43,34.43S34.56,102.58,34.56,83.6s15.44-34.43,34.43-34.43c3.71,0,7.37,0.61,10.85,1.76
		c0.32,0.1,0.61,0.22,0.92,0.32c1.95,0.71,3.84,1.58,5.63,2.63l0.05-0.08c1.61,0.91,3.02,1.87,4.24,2.82L74.21,74.48L63.69,63.97
		L45.21,82.45c0.61-12.6,11.02-22.68,23.78-22.68c3.37,0,6.62,0.69,9.67,2.04l2.15-4.84c-3.73-1.66-7.71-2.5-11.82-2.5
		c-16.06,0-29.13,13.07-29.13,29.13s13.07,29.13,29.13,29.13S98.12,99.66,98.12,83.6c0-5.07-1.32-10.05-3.82-14.42l-4.6,2.63
		c2.04,3.57,3.12,7.65,3.12,11.8c0,5.66-1.99,10.86-5.3,14.95V67.86l7.02-7.61C96.44,62.39,97.27,63.97,97.27,63.97z M82.23,73.6
		v29.81c-1.63,1.09-3.41,1.97-5.3,2.64V79.34L82.23,73.6z M71.64,79.4v27.88c-0.87,0.1-1.75,0.16-2.65,0.16
		c-0.9,0-1.78-0.06-2.65-0.16V74.11L71.64,79.4z M61.04,74.11v31.94c-1.88-0.67-3.67-1.54-5.3-2.64v-24L61.04,74.11z M50.45,84.7
		v13.85c-2.16-2.67-3.74-5.83-4.58-9.27L50.45,84.7z"/>
</g>
</svg>
