<?xml version="1.0" encoding="utf-8"?>
<!-- Generator: Adobe Illustrator 23.0.6, SVG Export Plug-In . SVG Version: 6.00 Build 0)  -->
<svg version="1.1" id="Capa_1" xmlns="http://www.w3.org/2000/svg" xmlns:xlink="http://www.w3.org/1999/xlink" x="0px" y="0px"
	 viewBox="0 0 214.72 178.79" style="enable-background:new 0 0 214.72 178.79;" xml:space="preserve">
<style type="text/css">
	.st0{fill:#7B84AE;}
	.st1{fill:#D4A469;}
	.st2{fill:#1A1C36;}
	.st3{fill:#2E3A73;}
</style>
<path class="st0" d="M23.62,12.49h158.55l-3.72,113.79h7.43c0,0,23.88,7.41-7.46,16.1H12.24c0,0-16.07-17.05,15.09-16.1L23.62,12.49
	z"/>
<rect x="31.37" y="28.03" class="st1" width="139.56" height="89.17"/>
<path class="st2" d="M182.17,130c-2.05,0-3.72-1.66-3.72-3.72V19.92H27.33v106.36c0,2.05-1.66,3.72-3.72,3.72s-3.72-1.66-3.72-3.72
	V16.2c0-2.05,1.66-3.72,3.72-3.72h158.55c2.05,0,3.72,1.66,3.72,3.72v110.08C185.89,128.33,184.22,130,182.17,130z"/>
<path class="st2" d="M170.71,119.94H35.08c-2.05,0-3.72-1.66-3.72-3.72V28.03c0-2.05,1.66-3.72,3.72-3.72h135.63
	c2.05,0,3.72,1.66,3.72,3.72v88.19C174.42,118.27,172.76,119.94,170.71,119.94z M38.8,112.51h128.2V31.74H38.8L38.8,112.51z"/>
<path class="st2" d="M185.51,145.32H20.29c-6.91-0.01-12.5-5.6-12.51-12.51v-6.54c0-2.05,1.66-3.72,3.72-3.72h72.03
	c2.05,0,3.72,1.66,3.72,3.72v0.68h31.33v-0.68c0-2.05,1.66-3.72,3.72-3.72h72.03c2.05,0,3.72,1.66,3.72,3.72v6.54
	C198.01,139.72,192.41,145.31,185.51,145.32L185.51,145.32z M15.21,129.99v2.82c0,2.8,2.28,5.08,5.08,5.08h165.22
	c2.8,0,5.08-2.28,5.08-5.08v-2.82h-64.6v0.68c0,2.05-1.66,3.72-3.72,3.72H83.52c-2.05,0-3.72-1.66-3.72-3.72v-0.68H15.21z"/>
<path class="st2" d="M58.2,66.97c-6.08,0-11.07-4.65-11.14-10.44c-0.03-2.89,1.16-5.66,3.28-7.63c2.1-1.97,4.86-3.08,7.74-3.1h0.15
	c3.41-0.01,6.65,1.5,8.84,4.12c1.29,1.59,1.05,3.93-0.54,5.23s-3.93,1.05-5.23-0.54c-0.78-0.91-1.93-1.41-3.12-1.37
	c-1.01,0-1.99,0.38-2.73,1.06c-0.61,0.55-0.95,1.32-0.96,2.14c0.02,1.72,1.68,3.1,3.71,3.1h0.11c2.05-0.01,3.73,1.64,3.74,3.69
	c0.01,2.05-1.64,3.73-3.69,3.74L58.2,66.97z"/>
<path class="st2" d="M58.38,80.71c-3.41,0.02-6.65-1.5-8.83-4.12c-1.27-1.62-0.98-3.95,0.63-5.22c1.58-1.23,3.85-1,5.13,0.53
	c1.53,1.7,4.15,1.84,5.85,0.31c0,0,0,0,0,0c1.16-1.01,1.28-2.77,0.27-3.93c-0.1-0.11-0.21-0.22-0.33-0.32
	c-0.76-0.68-1.74-1.03-2.76-0.99c-2.05,0.03-3.74-1.62-3.76-3.67c-0.03-2.05,1.62-3.74,3.67-3.76l0,0h0.16
	c2.83-0.02,5.56,1.02,7.66,2.9c4.24,3.72,4.66,10.17,0.94,14.41c-0.23,0.27-0.48,0.52-0.74,0.76c-2.1,1.97-4.86,3.08-7.74,3.1
	L58.38,80.71z"/>
<path class="st2" d="M58.3,53.24c-2.05,0-3.72-1.66-3.72-3.72v-6.74c0-2.05,1.66-3.72,3.72-3.72s3.72,1.66,3.72,3.72v6.74
	C62.02,51.58,60.35,53.24,58.3,53.24z"/>
<path class="st2" d="M58.3,87.45c-2.05,0-3.72-1.66-3.72-3.72v-6.74c0-2.05,1.66-3.72,3.72-3.72s3.72,1.66,3.72,3.72v6.74
	C62.02,85.79,60.35,87.45,58.3,87.45z"/>
<rect x="139.62" y="40.73" class="st3" width="12.73" height="61.02"/>
<path class="st2" d="M141.48,96.06h9.01V46.43h-9.01V96.06z M154.21,103.49h-16.44c-2.05,0-3.72-1.66-3.72-3.72V42.71
	c0-2.05,1.66-3.72,3.72-3.72h16.44c2.05,0,3.72,1.66,3.72,3.72v57.06C157.92,101.82,156.26,103.49,154.21,103.49z"/>
<rect x="106.63" y="59.54" class="st3" width="16.96" height="38.53"/>
<path class="st3" d="M92.45,98.08H80.23c-1.41,0-2.55-1.14-2.55-2.55V83.3c0-1.41,1.14-2.55,2.55-2.55h12.22
	c1.41,0,2.55,1.14,2.55,2.55v12.22C95,96.93,93.86,98.08,92.45,98.08z"/>
<path class="st2" d="M94.56,103.49H78.12c-2.05,0-3.72-1.66-3.72-3.72V82.13c0-2.05,1.66-3.72,3.72-3.72h16.44
	c2.05,0,3.72,1.66,3.72,3.72v17.64C98.28,101.82,96.61,103.49,94.56,103.49z M81.83,96.06h9.01V85.85h-9.01V96.06z"/>
<path class="st2" d="M124.38,103.49h-16.44c-2.05,0-3.72-1.66-3.72-3.72V61.73c0-2.05,1.66-3.72,3.72-3.72h16.44
	c2.05,0,3.72,1.66,3.72,3.72v38.04C128.1,101.82,126.44,103.49,124.38,103.49z M111.65,96.06h9.01V65.45h-9.01V96.06z"/>
</svg>
