<?xml version="1.0" encoding="utf-8"?>
<!-- Generator: Adobe Illustrator 23.0.6, SVG Export Plug-In . SVG Version: 6.00 Build 0)  -->
<svg version="1.1" id="Capa_1" xmlns="http://www.w3.org/2000/svg" xmlns:xlink="http://www.w3.org/1999/xlink" x="0px" y="0px"
	 viewBox="0 0 489.21 270.32" style="enable-background:new 0 0 489.21 270.32;" xml:space="preserve">
<style type="text/css">
	.st0{fill:#2E3A73;}
	.st1{fill:#1A1C36;}
</style>
<g>
	<g>
		<rect x="75.48" y="121.54" class="st0" width="12.75" height="41.45"/>
		<rect x="93.18" y="85.55" class="st0" width="17" height="77.44"/>
		<rect x="115.41" y="103.41" class="st0" width="17" height="59.58"/>
		<rect x="137.4" y="70.99" class="st0" width="17" height="92"/>
		<g>
			<path class="st1" d="M291.2,130.55h-2.97l9.84-22.23h2.47l9.87,22.23h-2.94l-8.62-20.08h0.97L291.2,130.55z M292.45,124.96
				l1.03-2.37h11.62l1.03,2.37H292.45z"/>
			<path class="st1" d="M318.4,130.77c-2.69,0-4.82-0.68-6.4-2.03l0.91-2.06c0.83,0.65,1.7,1.12,2.61,1.42
				c0.91,0.3,1.9,0.45,2.98,0.45c1.12,0,1.98-0.19,2.58-0.58c0.59-0.38,0.89-0.94,0.89-1.67c0-0.58-0.2-1.05-0.61-1.39
				c-0.41-0.34-1.08-0.63-2.01-0.86l-2.62-0.62c-1.35-0.29-2.39-0.81-3.11-1.56c-0.72-0.75-1.08-1.66-1.08-2.72
				c0-0.92,0.25-1.73,0.76-2.44c0.51-0.71,1.22-1.26,2.14-1.67c0.92-0.41,2-0.61,3.25-0.61c1.1,0,2.15,0.18,3.14,0.53
				c0.99,0.35,1.83,0.86,2.51,1.53l-0.91,2.03c-0.75-0.62-1.52-1.09-2.31-1.39c-0.79-0.3-1.61-0.45-2.47-0.45
				c-1.06,0-1.89,0.21-2.48,0.62c-0.59,0.42-0.89,0.98-0.89,1.69c0,0.6,0.19,1.08,0.56,1.44c0.38,0.35,0.97,0.64,1.78,0.84
				l2.65,0.66c1.5,0.31,2.6,0.83,3.31,1.55c0.71,0.72,1.06,1.64,1.06,2.76c0,1.37-0.56,2.47-1.69,3.29
				C321.83,130.36,320.31,130.77,318.4,130.77z"/>
			<path class="st1" d="M341.5,128.71c-0.69,0.65-1.57,1.15-2.65,1.51c-1.08,0.36-2.19,0.55-3.31,0.55c-1.64,0-3.06-0.32-4.25-0.97
				c-1.19-0.64-2.1-1.58-2.75-2.79c-0.65-1.22-0.97-2.67-0.97-4.36c0-1.62,0.32-3.05,0.95-4.28c0.63-1.23,1.51-2.19,2.64-2.89
				c1.12-0.7,2.41-1.05,3.87-1.05c1.42,0,2.63,0.31,3.64,0.94c1.01,0.62,1.78,1.51,2.31,2.67c0.53,1.16,0.8,2.53,0.8,4.14v0.5
				h-11.71v-1.75h10.09l-0.87,1.12c0.04-1.77-0.3-3.12-1.03-4.06c-0.73-0.94-1.79-1.41-3.18-1.41c-1.46,0-2.6,0.52-3.42,1.55
				c-0.82,1.03-1.23,2.47-1.23,4.32c0,2,0.44,3.5,1.31,4.51c0.87,1.01,2.16,1.51,3.87,1.51c0.92,0,1.79-0.15,2.62-0.45
				c0.83-0.3,1.62-0.75,2.37-1.36L341.5,128.71z"/>
			<path class="st1" d="M350.93,130.77c-2.69,0-4.82-0.68-6.4-2.03l0.91-2.06c0.83,0.65,1.7,1.12,2.61,1.42
				c0.91,0.3,1.9,0.45,2.98,0.45c1.12,0,1.98-0.19,2.58-0.58c0.59-0.38,0.89-0.94,0.89-1.67c0-0.58-0.2-1.05-0.61-1.39
				c-0.41-0.34-1.08-0.63-2.01-0.86l-2.62-0.62c-1.35-0.29-2.39-0.81-3.11-1.56c-0.72-0.75-1.08-1.66-1.08-2.72
				c0-0.92,0.25-1.73,0.76-2.44c0.51-0.71,1.22-1.26,2.14-1.67c0.92-0.41,2-0.61,3.25-0.61c1.1,0,2.15,0.18,3.14,0.53
				c0.99,0.35,1.83,0.86,2.51,1.53l-0.91,2.03c-0.75-0.62-1.52-1.09-2.31-1.39c-0.79-0.3-1.61-0.45-2.47-0.45
				c-1.06,0-1.89,0.21-2.48,0.62c-0.59,0.42-0.89,0.98-0.89,1.69c0,0.6,0.19,1.08,0.56,1.44c0.38,0.35,0.97,0.64,1.78,0.84
				l2.65,0.66c1.5,0.31,2.6,0.83,3.31,1.55c0.71,0.72,1.06,1.64,1.06,2.76c0,1.37-0.56,2.47-1.69,3.29
				C354.37,130.36,352.85,130.77,350.93,130.77z"/>
			<path class="st1" d="M367.67,130.77c-1.52,0-2.85-0.33-3.98-1c-1.13-0.67-2.01-1.61-2.64-2.83c-0.62-1.22-0.94-2.66-0.94-4.32
				c0-1.64,0.31-3.09,0.94-4.32c0.62-1.24,1.5-2.19,2.64-2.86c1.13-0.67,2.46-1,3.98-1c1.54,0,2.87,0.33,4,1
				c1.12,0.67,2,1.62,2.62,2.86c0.62,1.24,0.94,2.68,0.94,4.32c0,1.67-0.31,3.11-0.94,4.32c-0.62,1.22-1.5,2.16-2.62,2.83
				C370.54,130.44,369.21,130.77,367.67,130.77z M367.67,128.46c1.5,0,2.65-0.49,3.47-1.48c0.81-0.99,1.22-2.44,1.22-4.36
				c0-1.89-0.41-3.34-1.23-4.34c-0.82-1-1.97-1.5-3.45-1.5c-1.46,0-2.6,0.5-3.43,1.5c-0.83,1-1.25,2.45-1.25,4.34
				c0,1.92,0.41,3.37,1.22,4.36C365.01,127.97,366.17,128.46,367.67,128.46z"/>
			<path class="st1" d="M379.07,130.55v-11.3c0-0.73-0.02-1.46-0.05-2.2c-0.03-0.74-0.1-1.47-0.2-2.2h2.69l0.34,3.9l-0.34-0.13
				c0.27-1.37,0.89-2.41,1.86-3.11c0.97-0.7,2.06-1.05,3.26-1.05c0.29,0,0.56,0.02,0.8,0.05c0.24,0.03,0.46,0.08,0.67,0.14
				l-0.03,2.59c-0.52-0.19-1.1-0.28-1.75-0.28c-1.06,0-1.92,0.23-2.56,0.69c-0.65,0.46-1.11,1.04-1.4,1.75
				c-0.29,0.71-0.44,1.47-0.44,2.28v8.87H379.07z"/>
			<path class="st1" d="M289.95,160.42v-22.23h13.89v2.4h-11.05v7.34h10.43v2.4h-10.43v10.09H289.95z"/>
			<path class="st1" d="M307.03,137.94h3.34v3.09h-3.34V137.94z M307.28,160.42v-15.71h2.84v15.71H307.28z"/>
			<path class="st1" d="M314.87,160.42v-11.3c0-0.73-0.02-1.46-0.05-2.2c-0.03-0.74-0.1-1.47-0.2-2.2h2.69l0.28,3.22l-0.31,0.19
				c0.46-1.23,1.19-2.17,2.2-2.83c1.01-0.66,2.17-0.98,3.48-0.98c3.77,0,5.65,2.09,5.65,6.28v9.84h-2.84v-9.68
				c0-1.42-0.28-2.45-0.83-3.11c-0.55-0.66-1.43-0.98-2.64-0.98c-1.39,0-2.51,0.43-3.34,1.3c-0.83,0.86-1.25,2.02-1.25,3.48v8.99
				H314.87z"/>
			<path class="st1" d="M339.29,160.64c-1.37,0-2.59-0.33-3.64-0.98c-1.05-0.66-1.87-1.59-2.45-2.81c-0.58-1.22-0.87-2.65-0.87-4.29
				c0-1.64,0.3-3.08,0.89-4.31c0.59-1.23,1.42-2.19,2.47-2.89c1.05-0.7,2.25-1.05,3.61-1.05c1.42,0,2.62,0.35,3.62,1.05
				c1,0.7,1.68,1.69,2.03,2.98l-0.37,0.22v-3.84h2.81v15.71h-2.81v-3.93l0.37,0.16c-0.35,1.27-1.03,2.25-2.03,2.95
				C341.91,160.29,340.7,160.64,339.29,160.64z M339.91,158.33c1.5,0,2.65-0.5,3.45-1.51c0.8-1.01,1.2-2.45,1.2-4.32
				c0-1.87-0.41-3.31-1.22-4.32c-0.81-1.01-1.96-1.51-3.43-1.51c-1.48,0-2.63,0.52-3.47,1.56c-0.83,1.04-1.25,2.49-1.25,4.34
				c0,1.85,0.42,3.28,1.25,4.28C337.28,157.83,338.43,158.33,339.91,158.33z"/>
			<path class="st1" d="M352.12,160.42v-11.3c0-0.73-0.02-1.46-0.05-2.2c-0.03-0.74-0.1-1.47-0.2-2.2h2.69l0.28,3.22l-0.31,0.19
				c0.46-1.23,1.19-2.17,2.2-2.83c1.01-0.66,2.17-0.98,3.48-0.98c3.77,0,5.65,2.09,5.65,6.28v9.84h-2.84v-9.68
				c0-1.42-0.28-2.45-0.83-3.11c-0.55-0.66-1.43-0.98-2.64-0.98c-1.39,0-2.51,0.43-3.34,1.3c-0.83,0.86-1.25,2.02-1.25,3.48v8.99
				H352.12z"/>
			<path class="st1" d="M377.22,160.64c-1.58,0-2.94-0.33-4.07-1c-1.13-0.67-2.01-1.6-2.64-2.81c-0.62-1.21-0.94-2.63-0.94-4.28
				c0-1.62,0.32-3.06,0.95-4.31c0.63-1.25,1.53-2.22,2.7-2.9c1.17-0.69,2.54-1.03,4.12-1.03c1.08,0,2.12,0.18,3.12,0.55
				c1,0.36,1.82,0.87,2.47,1.51l-0.91,2.06c-0.75-0.58-1.49-1.03-2.23-1.33c-0.74-0.3-1.5-0.45-2.3-0.45
				c-1.52,0-2.73,0.51-3.64,1.53c-0.91,1.02-1.36,2.48-1.36,4.37c0,1.85,0.45,3.28,1.34,4.28c0.89,1,2.12,1.5,3.68,1.5
				c0.75,0,1.5-0.15,2.25-0.44c0.75-0.29,1.5-0.74,2.25-1.34l0.91,2.06c-0.67,0.62-1.51,1.12-2.53,1.48
				C379.39,160.45,378.33,160.64,377.22,160.64z"/>
			<path class="st1" d="M385.78,137.94h3.34v3.09h-3.34V137.94z M386.03,160.42v-15.71h2.84v15.71H386.03z"/>
			<path class="st1" d="M406.6,158.58c-0.69,0.65-1.57,1.15-2.65,1.51c-1.08,0.36-2.19,0.55-3.31,0.55c-1.64,0-3.06-0.32-4.25-0.97
				c-1.19-0.64-2.1-1.58-2.75-2.79c-0.65-1.22-0.97-2.67-0.97-4.36c0-1.62,0.32-3.05,0.95-4.28c0.63-1.23,1.51-2.19,2.64-2.89
				c1.12-0.7,2.41-1.05,3.87-1.05c1.42,0,2.63,0.31,3.64,0.94c1.01,0.62,1.78,1.51,2.31,2.67c0.53,1.16,0.8,2.53,0.8,4.14v0.5
				h-11.71v-1.75h10.09l-0.87,1.12c0.04-1.77-0.3-3.12-1.03-4.06c-0.73-0.94-1.79-1.41-3.18-1.41c-1.46,0-2.6,0.52-3.42,1.55
				c-0.82,1.03-1.23,2.47-1.23,4.32c0,2,0.44,3.5,1.31,4.51c0.87,1.01,2.16,1.51,3.87,1.51c0.92,0,1.79-0.15,2.62-0.45
				c0.83-0.3,1.62-0.75,2.37-1.36L406.6,158.58z"/>
			<path class="st1" d="M410.63,160.42v-11.3c0-0.73-0.02-1.46-0.05-2.2c-0.03-0.74-0.1-1.47-0.2-2.2h2.69l0.34,3.9l-0.34-0.13
				c0.27-1.37,0.89-2.41,1.86-3.11c0.97-0.7,2.06-1.05,3.26-1.05c0.29,0,0.56,0.02,0.8,0.05c0.24,0.03,0.46,0.08,0.67,0.14
				l-0.03,2.59c-0.52-0.19-1.1-0.28-1.75-0.28c-1.06,0-1.92,0.23-2.56,0.69c-0.65,0.46-1.11,1.04-1.4,1.75
				c-0.29,0.71-0.44,1.47-0.44,2.28v8.87H410.63z"/>
			<path class="st1" d="M428.46,160.64c-1.52,0-2.85-0.33-3.98-1c-1.13-0.67-2.01-1.61-2.64-2.83c-0.62-1.22-0.94-2.66-0.94-4.32
				c0-1.64,0.31-3.09,0.94-4.32c0.62-1.24,1.5-2.19,2.64-2.86c1.13-0.67,2.46-1,3.98-1c1.54,0,2.87,0.33,4,1
				c1.12,0.67,2,1.62,2.62,2.86s0.94,2.68,0.94,4.32c0,1.67-0.31,3.11-0.94,4.32c-0.62,1.22-1.5,2.16-2.62,2.83
				C431.33,160.3,430,160.64,428.46,160.64z M428.46,158.33c1.5,0,2.65-0.49,3.47-1.48c0.81-0.99,1.22-2.44,1.22-4.36
				c0-1.89-0.41-3.34-1.23-4.34c-0.82-1-1.97-1.5-3.45-1.5c-1.46,0-2.6,0.5-3.43,1.5c-0.83,1-1.25,2.45-1.25,4.34
				c0,1.92,0.41,3.37,1.22,4.36C425.81,157.83,426.96,158.33,428.46,158.33z"/>
		</g>
		<g>
			<path class="st1" d="M220.27,161.3v-57.51h10.02l20.76,47.42h-4.44l20.68-47.42h9.94v57.51h-11.15l-0.08-38.86l2.91,0.73
				l-16.08,38.13h-8.16l-16.4-38.13l3.07-0.73v38.86H220.27z"/>
		</g>
		<path class="st1" d="M192.69,162.76c-5.87,0-10.96-1.21-15.27-3.64c-4.31-2.42-7.62-5.86-9.94-10.3
			c-2.32-4.44-3.47-9.65-3.47-15.63c0-5.92,1.16-11.09,3.47-15.51c2.32-4.41,5.63-7.83,9.94-10.26c4.31-2.42,9.4-3.64,15.27-3.64
			c3.82,0,7.46,0.58,10.91,1.74c3.44,1.16,6.3,2.79,8.56,4.89l-3.96,9.05c-2.58-1.94-5.1-3.35-7.55-4.24
			c-2.45-0.89-5.02-1.33-7.71-1.33c-5.12,0-9.08,1.63-11.87,4.89c-2.8,3.26-4.2,8.06-4.2,14.42c0,6.36,1.4,11.19,4.2,14.5
			c2.8,3.31,6.76,4.97,11.87,4.97c2.69,0,5.26-0.44,7.71-1.33c2.45-0.89,4.97-2.3,7.55-4.24l3.96,9.05
			c-2.26,2.1-5.12,3.73-8.56,4.89C200.15,162.18,196.52,162.76,192.69,162.76z"/>
		<rect x="75.48" y="171.96" class="st1" width="361.25" height="16.88"/>
	</g>
</g>
</svg>
